<?xml version="1.0" encoding="utf-8"?>
<!-- Generator: Adobe Illustrator 17.0.0, SVG Export Plug-In . SVG Version: 6.00 Build 0)  -->
<!DOCTYPE svg PUBLIC "-//W3C//DTD SVG 1.1//EN" "http://www.w3.org/Graphics/SVG/1.1/DTD/svg11.dtd">
<svg version="1.1" id="Layer_1" xmlns="http://www.w3.org/2000/svg" xmlns:xlink="http://www.w3.org/1999/xlink" x="0px" y="0px"
	 width="10px" height="10px" viewBox="0 0 10 10" enable-background="new 0 0 10 10" xml:space="preserve">
<g>
	<path d="M7.026,5.676C6.993,5.64,6.957,5.622,6.918,5.622c-0.055,0-0.111,0.049-0.168,0.145C6.562,6.086,6.319,6.34,6.021,6.529
		C5.723,6.719,5.42,6.813,5.112,6.813c-0.123,0-0.205-0.027-0.245-0.08C4.826,6.68,4.806,6.572,4.806,6.41L4.81,6.159V3.542
		c0-0.292,0.023-0.481,0.067-0.567c0.044-0.087,0.144-0.13,0.298-0.13c0.23,0,0.475,0.065,0.733,0.194S6.355,3.32,6.476,3.495
		C6.559,3.62,6.628,3.684,6.683,3.684c0.041,0,0.077-0.014,0.105-0.041c0.029-0.028,0.043-0.061,0.043-0.1
		c0-0.078-0.05-0.174-0.148-0.288c-0.099-0.113-0.228-0.22-0.385-0.319C5.93,2.703,5.501,2.586,5.01,2.586
		c-0.616,0-1.135,0.188-1.555,0.565C2.988,3.564,2.748,4.078,2.716,4.685L1.405,5.489v0.038L2.994,6.63V5.914
		c0.111,0.195,0.244,0.38,0.422,0.547c0.417,0.396,0.946,0.595,1.586,0.595c0.468,0,0.906-0.138,1.317-0.411
		c0.201-0.136,0.377-0.289,0.529-0.46c0.151-0.171,0.227-0.303,0.227-0.398C7.075,5.748,7.058,5.711,7.026,5.676z M2.224,5.29
		l0.495-0.303c0.019,0.278,0.078,0.538,0.19,0.777L2.224,5.29z"/>
	<path d="M7.032,4.532l0.071-0.128c0.109-0.195,0.171-0.309,0.19-0.342C7.311,4.029,7.32,4.008,7.32,4.001
		c0-0.01-0.005-0.02-0.015-0.028C7.293,3.965,7.281,3.961,7.266,3.962C7.25,3.962,7.237,3.969,7.228,3.982
		c-0.009,0.013-0.044,0.077-0.106,0.19l-0.111,0.2L6.772,4.805L6.39,5.49L6.342,5.576C6.323,5.61,6.313,5.632,6.313,5.643
		c0,0.01,0.004,0.018,0.014,0.026c0.009,0.008,0.02,0.012,0.033,0.012c0.028,0,0.052-0.022,0.073-0.066
		c0.006-0.013,0.021-0.042,0.046-0.087l0.134-0.24L6.711,5.11l-0.03,0.06l1.095,0.685l-0.77,0.471V6.63l1.588-0.974V5.618
		L7.032,4.532z"/>
</g>
</svg>
